<svg width="528" height="100" viewBox="0 0 528 100" fill="none" xmlns="http://www.w3.org/2000/svg">
<path d="M268.604 43.942V44H265.849L263.993 39.969H253.872L252.045 44H249.29V43.942L258.541 24.135H259.353L268.604 43.942ZM258.947 28.572C258.425 29.906 257.99 30.9597 257.642 31.733L254.887 37.736H262.978L260.252 31.733C259.885 30.921 259.45 29.8673 258.947 28.572ZM279.263 37.359C279.959 37.591 280.51 37.968 280.916 38.49C281.322 39.012 281.525 39.6597 281.525 40.433C281.525 41.5543 281.138 42.434 280.365 43.072C279.592 43.6907 278.567 44 277.291 44H270.94V31.124H276.827C278.064 31.124 279.06 31.4333 279.814 32.052C280.568 32.6707 280.945 33.502 280.945 34.546C280.945 35.8413 280.384 36.779 279.263 37.359ZM273.347 33.096V36.489H276.595C277.252 36.489 277.745 36.3247 278.074 35.996C278.403 35.6673 278.567 35.2517 278.567 34.749C278.567 34.285 278.403 33.8983 278.074 33.589C277.745 33.2603 277.252 33.096 276.595 33.096H273.347ZM277.001 42.028C277.697 42.028 278.219 41.8637 278.567 41.535C278.915 41.2063 279.089 40.7713 279.089 40.23C279.089 39.708 278.915 39.2827 278.567 38.954C278.219 38.606 277.697 38.432 277.001 38.432H273.347V42.028H277.001ZM286.628 33.27H282.742V31.124H292.95V33.27H289.064V44H286.628V33.27ZM300.842 44.348C299.547 44.348 298.387 44.058 297.362 43.478C296.338 42.898 295.535 42.0957 294.955 41.071C294.395 40.0463 294.114 38.8767 294.114 37.562C294.114 36.2473 294.395 35.0777 294.955 34.053C295.535 33.0283 296.338 32.226 297.362 31.646C298.387 31.066 299.547 30.776 300.842 30.776C302.157 30.776 303.327 31.066 304.351 31.646C305.395 32.226 306.198 33.0283 306.758 34.053C307.338 35.0777 307.628 36.2473 307.628 37.562C307.628 38.8767 307.338 40.0463 306.758 41.071C306.198 42.0957 305.395 42.898 304.351 43.478C303.327 44.058 302.157 44.348 300.842 44.348ZM300.842 42.144C302.138 42.144 303.182 41.7187 303.974 40.868C304.786 40.0173 305.192 38.9153 305.192 37.562C305.192 36.2087 304.786 35.1067 303.974 34.256C303.182 33.4053 302.138 32.98 300.842 32.98C299.586 32.98 298.551 33.415 297.739 34.285C296.947 35.1357 296.55 36.228 296.55 37.562C296.55 38.9153 296.947 40.0173 297.739 40.868C298.551 41.7187 299.586 42.144 300.842 42.144ZM310.9 31.124H321.949V44H319.542V33.299H313.336V44H310.9V31.124ZM337.389 31.124V31.182L332.053 44.551C331.569 45.7883 331.067 46.7937 330.545 47.567C330.023 48.3597 329.375 48.9977 328.602 49.481C327.848 49.9643 326.9 50.3027 325.76 50.496L325.325 48.495C326.175 48.3597 326.871 48.1083 327.413 47.741C327.973 47.3737 328.428 46.9097 328.776 46.349C329.124 45.7883 329.481 45.0537 329.849 44.145L329.994 43.826L324.426 31.182V31.124H327.007L329.617 37.301C330.274 38.8863 330.767 40.1913 331.096 41.216C331.424 40.1333 331.801 39.0507 332.227 37.968C332.246 37.8713 332.323 37.649 332.459 37.301L334.837 31.124H337.389ZM346.689 31.037C347.791 31.037 348.815 31.298 349.763 31.82C350.71 32.3227 351.464 33.067 352.025 34.053C352.585 35.039 352.866 36.2087 352.866 37.562C352.866 38.9927 352.566 40.2107 351.967 41.216C351.387 42.2213 350.584 42.985 349.56 43.507C348.554 44.029 347.414 44.29 346.138 44.29C344.823 44.29 343.663 43.9903 342.658 43.391C341.652 42.7917 340.86 41.883 340.28 40.665C339.7 39.447 339.41 37.9487 339.41 36.17V34.546C339.41 32.8833 339.719 31.298 340.338 29.79C340.956 28.2627 341.923 27.064 343.238 26.194C343.934 25.7107 344.61 25.3433 345.268 25.092C345.925 24.8407 346.669 24.599 347.501 24.367C348.235 24.135 348.815 23.9417 349.241 23.787C349.685 23.6323 350.12 23.41 350.546 23.12L351.416 25.295C350.894 25.643 350.391 25.9137 349.908 26.107C349.444 26.281 348.786 26.4937 347.936 26.745C347.201 26.9577 346.582 27.1607 346.08 27.354C345.577 27.528 345.074 27.7793 344.572 28.108C343.798 28.5913 343.17 29.297 342.687 30.225C342.203 31.153 341.884 32.2357 341.73 33.473C342.967 31.849 344.62 31.037 346.689 31.037ZM346.138 42.086C347.491 42.086 348.535 41.6703 349.27 40.839C350.024 39.9883 350.401 38.9057 350.401 37.591C350.401 36.3343 350.024 35.2903 349.27 34.459C348.516 33.6277 347.491 33.212 346.196 33.212C345.403 33.212 344.688 33.4053 344.05 33.792C343.412 34.1787 342.909 34.72 342.542 35.416C342.174 36.0927 341.991 36.8563 341.991 37.707C341.991 39.041 342.377 40.1043 343.151 40.897C343.943 41.6897 344.939 42.086 346.138 42.086ZM353.478 42.028C354.619 41.912 355.421 41.5157 355.885 40.839C356.349 40.143 356.639 39.07 356.755 37.62L357.306 31.124H366.093V44H363.657V33.299H359.452L359.133 37.591C359.017 39.099 358.766 40.3073 358.379 41.216C358.012 42.1247 357.461 42.811 356.726 43.275C355.992 43.739 355.006 44.0387 353.768 44.174L353.478 42.028ZM381.31 31.124V44H378.903V37.098C378.903 36.46 378.912 35.9767 378.932 35.648C378.584 36.0927 378.187 36.5567 377.743 37.04L371.131 44H370.203V31.124H372.639V37.794C372.639 38.3547 372.61 38.9153 372.552 39.476C373.016 38.9347 373.499 38.3933 374.002 37.852L380.382 31.124H381.31ZM396.14 43.855V44H393.24L387.875 38.258V44H385.439V31.124H387.875V36.518L392.776 31.124H395.618V31.24L390.021 37.33L396.14 43.855ZM403 30.95C404.566 30.95 405.803 31.356 406.712 32.168C407.62 32.9607 408.075 34.082 408.075 35.532V44H406.393L405.958 41.941C405.455 42.6563 404.807 43.217 404.015 43.623C403.222 44.029 402.294 44.232 401.231 44.232C399.974 44.232 398.978 43.913 398.244 43.275C397.509 42.637 397.142 41.7573 397.142 40.636C397.142 39.2053 397.722 38.084 398.882 37.272C400.061 36.46 401.627 36.054 403.58 36.054C404.334 36.054 405.02 36.083 405.639 36.141V35.445C405.639 34.691 405.378 34.1207 404.856 33.734C404.334 33.328 403.618 33.125 402.71 33.125C401.453 33.125 400.061 33.4827 398.534 34.198L397.78 32.226C399.636 31.3753 401.376 30.95 403 30.95ZM401.782 42.202C402.922 42.202 403.841 41.8153 404.537 41.042C405.252 40.2687 405.629 39.244 405.668 37.968C405.126 37.8907 404.527 37.852 403.87 37.852C402.516 37.852 401.463 38.084 400.709 38.548C399.974 38.9927 399.607 39.621 399.607 40.433C399.607 40.9937 399.79 41.4287 400.158 41.738C400.544 42.0473 401.086 42.202 401.782 42.202ZM424.85 41.854V47.364H422.559V44H412.032V31.124H414.468V41.854H420.616V31.124H423.023V41.854H424.85ZM438.602 31.124V44H436.195V37.098C436.195 36.46 436.204 35.9767 436.224 35.648C435.876 36.0927 435.479 36.5567 435.035 37.04L428.423 44H427.495V31.124H429.931V37.794C429.931 38.3547 429.902 38.9153 429.844 39.476C430.308 38.9347 430.791 38.3933 431.294 37.852L437.674 31.124H438.602ZM453.838 31.124V44H451.431V37.098C451.431 36.46 451.441 35.9767 451.46 35.648C451.112 36.0927 450.716 36.5567 450.271 37.04L443.659 44H442.731V31.124H445.167V37.794C445.167 38.3547 445.138 38.9153 445.08 39.476C445.544 38.9347 446.027 38.3933 446.53 37.852L452.91 31.124H453.838ZM259.382 67.359C260.078 67.591 260.629 67.968 261.035 68.49C261.441 69.012 261.644 69.6597 261.644 70.433C261.644 71.5543 261.257 72.434 260.484 73.072C259.711 73.6907 258.686 74 257.41 74H251.059V61.124H256.946C258.183 61.124 259.179 61.4333 259.933 62.052C260.687 62.6707 261.064 63.502 261.064 64.546C261.064 65.8413 260.503 66.779 259.382 67.359ZM253.466 63.096V66.489H256.714C257.371 66.489 257.864 66.3247 258.193 65.996C258.522 65.6673 258.686 65.2517 258.686 64.749C258.686 64.285 258.522 63.8983 258.193 63.589C257.864 63.2603 257.371 63.096 256.714 63.096H253.466ZM257.12 72.028C257.816 72.028 258.338 71.8637 258.686 71.535C259.034 71.2063 259.208 70.7713 259.208 70.23C259.208 69.708 259.034 69.2827 258.686 68.954C258.338 68.606 257.816 68.432 257.12 68.432H253.466V72.028H257.12ZM277.105 74.348C276.003 74.348 274.949 74.087 273.944 73.565C272.958 73.043 272.155 72.2697 271.537 71.245C270.918 70.2203 270.609 68.983 270.609 67.533C270.609 66.1603 270.908 64.9617 271.508 63.937C272.107 62.9123 272.909 62.1293 273.915 61.588C274.939 61.0467 276.051 60.776 277.25 60.776C279.067 60.776 280.633 61.3657 281.948 62.545L280.672 64.198C280.188 63.7727 279.686 63.4633 279.164 63.27C278.642 63.0767 278.042 62.98 277.366 62.98C276.554 62.98 275.819 63.1733 275.162 63.56C274.504 63.9273 273.982 64.459 273.596 65.155C273.228 65.8317 273.045 66.6243 273.045 67.533C273.045 68.925 273.451 70.0463 274.263 70.897C275.075 71.7283 276.099 72.144 277.337 72.144C278.071 72.144 278.719 72.028 279.28 71.796C279.84 71.564 280.382 71.1967 280.904 70.694L282.18 72.405C281.464 73.0623 280.71 73.5553 279.918 73.884C279.125 74.1933 278.187 74.348 277.105 74.348ZM290.477 74.348C289.182 74.348 288.022 74.058 286.997 73.478C285.973 72.898 285.17 72.0957 284.59 71.071C284.03 70.0463 283.749 68.8767 283.749 67.562C283.749 66.2473 284.03 65.0777 284.59 64.053C285.17 63.0283 285.973 62.226 286.997 61.646C288.022 61.066 289.182 60.776 290.477 60.776C291.792 60.776 292.962 61.066 293.986 61.646C295.03 62.226 295.833 63.0283 296.393 64.053C296.973 65.0777 297.263 66.2473 297.263 67.562C297.263 68.8767 296.973 70.0463 296.393 71.071C295.833 72.0957 295.03 72.898 293.986 73.478C292.962 74.058 291.792 74.348 290.477 74.348ZM290.477 72.144C291.773 72.144 292.817 71.7187 293.609 70.868C294.421 70.0173 294.827 68.9153 294.827 67.562C294.827 66.2087 294.421 65.1067 293.609 64.256C292.817 63.4053 291.773 62.98 290.477 62.98C289.221 62.98 288.186 63.415 287.374 64.285C286.582 65.1357 286.185 66.228 286.185 67.562C286.185 68.9153 286.582 70.0173 287.374 70.868C288.186 71.7187 289.221 72.144 290.477 72.144ZM313.353 71.854V77.364H311.062V74H300.535V61.124H302.971V71.854H309.119V61.124H311.526V71.854H313.353ZM327.104 61.124V74H324.697V67.098C324.697 66.46 324.707 65.9767 324.726 65.648C324.378 66.0927 323.982 66.5567 323.537 67.04L316.925 74H315.997V61.124H318.433V67.794C318.433 68.3547 318.404 68.9153 318.346 69.476C318.81 68.9347 319.294 68.3933 319.796 67.852L326.176 61.124H327.104ZM336.164 60.95C337.73 60.95 338.967 61.356 339.876 62.168C340.784 62.9607 341.239 64.082 341.239 65.532V74H339.557L339.122 71.941C338.619 72.6563 337.971 73.217 337.179 73.623C336.386 74.029 335.458 74.232 334.395 74.232C333.138 74.232 332.142 73.913 331.408 73.275C330.673 72.637 330.306 71.7573 330.306 70.636C330.306 69.2053 330.886 68.084 332.046 67.272C333.225 66.46 334.791 66.054 336.744 66.054C337.498 66.054 338.184 66.083 338.803 66.141V65.445C338.803 64.691 338.542 64.1207 338.02 63.734C337.498 63.328 336.782 63.125 335.874 63.125C334.617 63.125 333.225 63.4827 331.698 64.198L330.944 62.226C332.8 61.3753 334.54 60.95 336.164 60.95ZM334.946 72.202C336.086 72.202 337.005 71.8153 337.701 71.042C338.416 70.2687 338.793 69.244 338.832 67.968C338.29 67.8907 337.691 67.852 337.034 67.852C335.68 67.852 334.627 68.084 333.873 68.548C333.138 68.9927 332.771 69.621 332.771 70.433C332.771 70.9937 332.954 71.4287 333.322 71.738C333.708 72.0473 334.25 72.202 334.946 72.202ZM343.368 72.028C344.509 71.912 345.311 71.5157 345.775 70.839C346.239 70.143 346.529 69.07 346.645 67.62L347.196 61.124H355.983V74H353.547V63.299H349.342L349.023 67.591C348.907 69.099 348.656 70.3073 348.269 71.216C347.902 72.1247 347.351 72.811 346.616 73.275C345.881 73.739 344.895 74.0387 343.658 74.174L343.368 72.028ZM365.776 65.445C367.265 65.445 368.444 65.822 369.314 66.576C370.184 67.33 370.619 68.374 370.619 69.708C370.619 71.0613 370.184 72.115 369.314 72.869C368.444 73.623 367.265 74 365.776 74H360.092V61.124H362.528V65.445H365.776ZM365.544 71.941C366.395 71.941 367.043 71.7573 367.487 71.39C367.951 71.0033 368.183 70.4427 368.183 69.708C368.183 68.9927 367.951 68.4513 367.487 68.084C367.043 67.6973 366.395 67.504 365.544 67.504H362.528V71.941H365.544ZM384.594 61.124V74H382.158V68.577H375.952V74H373.516V61.124H375.952V66.402H382.158V61.124H384.594ZM394.408 65.445C395.897 65.445 397.076 65.822 397.946 66.576C398.816 67.33 399.251 68.374 399.251 69.708C399.251 71.0613 398.816 72.115 397.946 72.869C397.076 73.623 395.897 74 394.408 74H388.724V61.124H391.16V65.445H394.408ZM404.007 61.124V74H401.571V61.124H404.007ZM394.176 71.941C395.027 71.941 395.674 71.7573 396.119 71.39C396.583 71.0033 396.815 70.4427 396.815 69.708C396.815 68.9927 396.583 68.4513 396.119 68.084C395.674 67.6973 395.027 67.504 394.176 67.504H391.16V71.941H394.176ZM413.836 60.776C415.615 60.776 417.017 61.3463 418.041 62.487C419.066 63.6083 419.578 65.126 419.578 67.04C419.578 67.504 419.549 67.968 419.491 68.432H409.718C409.873 69.6113 410.356 70.5393 411.168 71.216C412 71.8733 412.995 72.202 414.155 72.202C414.948 72.202 415.634 72.086 416.214 71.854C416.794 71.622 417.326 71.274 417.809 70.81L418.998 72.463C417.587 73.7197 415.944 74.348 414.068 74.348C412.754 74.348 411.574 74.0677 410.53 73.507C409.506 72.927 408.703 72.1247 408.123 71.1C407.563 70.056 407.282 68.867 407.282 67.533C407.282 66.2763 407.563 65.1357 408.123 64.111C408.684 63.0863 409.457 62.2743 410.443 61.675C411.449 61.0757 412.58 60.776 413.836 60.776ZM413.807 62.922C412.783 62.922 411.893 63.2507 411.139 63.908C410.405 64.546 409.941 65.416 409.747 66.518H417.258C417.22 65.358 416.881 64.4687 416.243 63.85C415.625 63.2313 414.813 62.922 413.807 62.922ZM434.99 74.348C433.888 74.348 432.835 74.087 431.829 73.565C430.843 73.043 430.041 72.2697 429.422 71.245C428.804 70.2203 428.494 68.983 428.494 67.533C428.494 66.1603 428.794 64.9617 429.393 63.937C429.993 62.9123 430.795 62.1293 431.8 61.588C432.825 61.0467 433.937 60.776 435.135 60.776C436.953 60.776 438.519 61.3657 439.833 62.545L438.557 64.198C438.074 63.7727 437.571 63.4633 437.049 63.27C436.527 63.0767 435.928 62.98 435.251 62.98C434.439 62.98 433.705 63.1733 433.047 63.56C432.39 63.9273 431.868 64.459 431.481 65.155C431.114 65.8317 430.93 66.6243 430.93 67.533C430.93 68.925 431.336 70.0463 432.148 70.897C432.96 71.7283 433.985 72.144 435.222 72.144C435.957 72.144 436.605 72.028 437.165 71.796C437.726 71.564 438.267 71.1967 438.789 70.694L440.065 72.405C439.35 73.0623 438.596 73.5553 437.803 73.884C437.011 74.1933 436.073 74.348 434.99 74.348ZM448.189 60.776C449.968 60.776 451.369 61.3463 452.394 62.487C453.419 63.6083 453.931 65.126 453.931 67.04C453.931 67.504 453.902 67.968 453.844 68.432H444.071C444.226 69.6113 444.709 70.5393 445.521 71.216C446.352 71.8733 447.348 72.202 448.508 72.202C449.301 72.202 449.987 72.086 450.567 71.854C451.147 71.622 451.679 71.274 452.162 70.81L453.351 72.463C451.94 73.7197 450.296 74.348 448.421 74.348C447.106 74.348 445.927 74.0677 444.883 73.507C443.858 72.927 443.056 72.1247 442.476 71.1C441.915 70.056 441.635 68.867 441.635 67.533C441.635 66.2763 441.915 65.1357 442.476 64.111C443.037 63.0863 443.81 62.2743 444.796 61.675C445.801 61.0757 446.932 60.776 448.189 60.776ZM448.16 62.922C447.135 62.922 446.246 63.2507 445.492 63.908C444.757 64.546 444.293 65.416 444.1 66.518H451.611C451.572 65.358 451.234 64.4687 450.596 63.85C449.977 63.2313 449.165 62.922 448.16 62.922ZM459.354 63.27H455.468V61.124H465.676V63.27H461.79V74H459.354V63.27ZM479.354 61.124V74H476.947V67.098C476.947 66.46 476.957 65.9767 476.976 65.648C476.628 66.0927 476.232 66.5567 475.787 67.04L469.175 74H468.247V61.124H470.683V67.794C470.683 68.3547 470.654 68.9153 470.596 69.476C471.06 68.9347 471.544 68.3933 472.046 67.852L478.426 61.124H479.354ZM494.925 74.319C493.727 74.319 492.596 74.058 491.532 73.536C490.488 73.014 489.599 72.2987 488.864 71.39L490.546 69.853C491.803 71.245 493.243 71.941 494.867 71.941C496.201 71.941 497.265 71.6123 498.057 70.955C498.85 70.2977 499.246 69.4567 499.246 68.432C499.246 67.214 498.811 66.3537 497.941 65.851C497.091 65.329 496.056 65.068 494.838 65.068H492.431V62.806H494.519C495.776 62.806 496.723 62.4967 497.361 61.878C498.019 61.2593 498.347 60.5343 498.347 59.703C498.347 58.8717 498.038 58.1853 497.419 57.644C496.82 57.1027 496.018 56.832 495.012 56.832C494.22 56.832 493.495 56.9963 492.837 57.325C492.199 57.6537 491.571 58.108 490.952 58.688L489.415 57.209C491.02 55.411 492.953 54.512 495.215 54.512C496.337 54.512 497.332 54.7343 498.202 55.179C499.072 55.6043 499.739 56.194 500.203 56.948C500.687 57.6827 500.928 58.514 500.928 59.442C500.928 60.312 500.687 61.1433 500.203 61.936C499.72 62.7287 499.034 63.3377 498.144 63.763C499.382 64.1497 500.31 64.7877 500.928 65.677C501.547 66.5663 501.856 67.5523 501.856 68.635C501.856 69.737 501.566 70.723 500.986 71.593C500.426 72.4437 499.614 73.1107 498.55 73.594C497.506 74.0773 496.298 74.319 494.925 74.319ZM507.087 74.319C506.623 74.319 506.217 74.174 505.869 73.884C505.54 73.594 505.376 73.1783 505.376 72.637C505.376 72.0957 505.54 71.68 505.869 71.39C506.217 71.1 506.623 70.955 507.087 70.955C507.57 70.955 507.976 71.1 508.305 71.39C508.634 71.68 508.798 72.0957 508.798 72.637C508.798 73.1783 508.634 73.594 508.305 73.884C507.976 74.174 507.57 74.319 507.087 74.319ZM519.317 74.319C517.906 74.319 516.678 73.9227 515.634 73.13C514.59 72.318 513.788 71.1677 513.227 69.679C512.686 68.171 512.415 66.4117 512.415 64.401C512.415 62.3903 512.686 60.6407 513.227 59.152C513.788 57.6633 514.59 56.5227 515.634 55.73C516.678 54.918 517.906 54.512 519.317 54.512C520.728 54.512 521.956 54.918 523 55.73C524.044 56.5227 524.837 57.6633 525.378 59.152C525.939 60.6407 526.219 62.3903 526.219 64.401C526.219 66.4117 525.939 68.171 525.378 69.679C524.837 71.1677 524.044 72.318 523 73.13C521.956 73.9227 520.728 74.319 519.317 74.319ZM519.317 71.941C520.67 71.941 521.714 71.2643 522.449 69.911C523.203 68.5577 523.58 66.721 523.58 64.401C523.58 62.081 523.203 60.2443 522.449 58.891C521.714 57.5377 520.67 56.861 519.317 56.861C517.964 56.861 516.91 57.5377 516.156 58.891C515.421 60.2443 515.054 62.081 515.054 64.401C515.054 66.721 515.421 68.5577 516.156 69.911C516.91 71.2643 517.964 71.941 519.317 71.941Z" fill="#3B3B3B"/>
<path d="M93.3422 49.0291C93.6371 49.0291 93.801 48.8651 93.801 48.5699V42.4359C95.2427 43.6167 96.9138 44.076 99.0109 44.076C104.319 44.076 108.153 40.4021 108.153 34.8913C108.153 29.3805 104.286 25.6739 99.0109 25.6739C96.9138 25.6739 94.9478 26.3299 93.6044 27.642L93.375 27.6092L93.0801 26.3299C93.0145 26.0675 92.8507 25.9363 92.5886 25.9363H90.4587C90.1638 25.9363 90 26.1003 90 26.3955V48.5699C90 48.8651 90.1638 49.0291 90.4587 49.0291H93.3422ZM93.801 31.3815C95.2099 29.8398 96.8155 29.2821 99.0109 29.2821C102.124 29.2821 104.385 31.4471 104.385 34.8913C104.385 38.3028 102.124 40.4677 99.0109 40.4677C96.881 40.4677 95.1444 39.7789 93.801 38.434V31.3815Z" fill="#3B3B3B"/>
<path d="M123.465 41.7142L124.284 43.7808C124.382 44.0432 124.579 44.1416 124.841 44.0432L127.167 43.2887C127.528 43.1903 127.561 42.8951 127.462 42.6327L127.036 41.255C126.676 40.0741 126.61 38.8604 126.61 37.5483V31.8407C126.61 27.4124 123.104 25.6739 119.238 25.6739C115.961 25.6739 113.733 26.5595 111.538 28.1668C111.308 28.3308 111.243 28.6589 111.472 28.9213L112.75 30.7254C112.914 30.955 113.274 30.9878 113.536 30.8238C115.371 29.6757 116.846 29.2493 119.238 29.2493C121.204 29.2493 122.809 29.8726 122.809 31.4143V31.8079L117.042 32.5624C113.012 33.0872 110.62 35.1865 110.62 38.4996C110.62 41.8454 113.241 44.076 117.01 44.076C119.631 44.076 121.695 43.2559 123.301 41.7142H123.465ZM122.809 38.0075C121.662 39.5492 119.893 40.5005 117.403 40.5005C115.338 40.5005 114.421 39.6477 114.421 38.3028C114.421 37.1547 115.24 36.269 117.042 35.9738L122.809 35.0225V38.0075Z" fill="#3B3B3B"/>
<path d="M131.257 25.9363C130.962 25.9363 130.799 26.1003 130.799 26.3955V43.3543C130.799 43.6495 131.028 43.8136 131.257 43.8136H134.141C134.436 43.8136 134.599 43.6495 134.599 43.3543V31.5783C135.746 30.0366 137.221 29.2493 139.023 29.2493C141.218 29.2493 142.3 30.6926 142.824 32.5624C142.922 32.8576 143.119 32.9232 143.414 32.8248L146.002 31.9391C146.264 31.8407 146.363 31.6439 146.297 31.3159C145.609 28.0684 143.119 25.6739 139.383 25.6739C137.417 25.6739 135.877 26.3955 134.599 27.6748H134.436L134.108 26.3299C134.042 26.0675 133.879 25.9363 133.649 25.9363H131.257Z" fill="#3B3B3B"/>
<path d="M149.433 25.9363C149.138 25.9363 148.974 26.1003 148.974 26.3955V43.3543C148.974 43.6495 149.203 43.8136 149.433 43.8136H152.316C152.611 43.8136 152.775 43.6495 152.775 43.3543V31.5783C153.922 30.0366 155.396 29.2493 157.198 29.2493C159.394 29.2493 160.475 30.6926 160.999 32.5624C161.098 32.8576 161.294 32.9232 161.589 32.8248L164.178 31.9391C164.44 31.8407 164.538 31.6439 164.473 31.3159C163.784 28.0684 161.294 25.6739 157.559 25.6739C155.593 25.6739 154.053 26.3955 152.775 27.6748H152.611L152.283 26.3299C152.218 26.0675 152.054 25.9363 151.825 25.9363H149.433Z" fill="#3B3B3B"/>
<path d="M175.898 29.2493C179.142 29.2493 181.436 31.5783 181.436 34.8913C181.436 38.1387 179.142 40.5005 175.898 40.5005C172.621 40.5005 170.328 38.1387 170.328 34.8913C170.328 31.5783 172.621 29.2493 175.898 29.2493ZM166.494 34.8913C166.494 40.1725 170.721 44.076 175.898 44.076C181.042 44.076 185.269 40.1725 185.269 34.8913C185.269 29.6429 181.042 25.6739 175.898 25.6739C170.721 25.6739 166.494 29.6429 166.494 34.8913Z" fill="#3B3B3B"/>
<path d="M189.293 26.0019L187.163 26.1987C186.901 26.2315 186.77 26.3955 186.77 26.6251V29.0197C186.77 29.3149 186.934 29.4789 187.228 29.4789H189.26V38.0731C189.26 41.583 190.964 44.076 194.896 44.076C196.567 44.076 197.812 43.7151 199.024 42.9279C199.319 42.7639 199.385 42.5671 199.254 42.2718L198.369 40.1725C198.271 39.9429 198.074 39.8117 197.714 39.9757C197.026 40.3365 196.239 40.5005 195.355 40.5005C193.946 40.5005 193.061 39.6477 193.061 37.9747V29.4789H197.91C198.205 29.4789 198.369 29.3149 198.369 29.0197V26.3955C198.369 26.1003 198.205 25.9363 197.91 25.9363H193.061V22.4592C193.061 22.164 192.832 22 192.602 22H190.112C189.85 22 189.686 22.164 189.653 22.4592L189.293 26.0019Z" fill="#3B3B3B"/>
<path d="M93.345 80C93.6402 80 93.8041 79.8326 93.8041 79.5312V73.2694C95.2471 74.4749 96.9196 74.9437 99.0184 74.9437C104.331 74.9437 108.168 71.1933 108.168 65.5676C108.168 59.9421 104.298 56.1582 99.0184 56.1582C96.9196 56.1582 94.9519 56.8279 93.6074 58.1673L93.3778 58.1338L93.0827 56.8279C93.0171 56.56 92.8531 56.4261 92.5908 56.4261H90.4591C90.164 56.4261 90 56.5935 90 56.8949V79.5312C90 79.8326 90.164 80 90.4591 80H93.345ZM93.8041 61.9847C95.2143 60.4109 96.8212 59.8416 99.0184 59.8416C102.134 59.8416 104.397 62.0517 104.397 65.5676C104.397 69.0502 102.134 71.2602 99.0184 71.2602C96.8868 71.2602 95.1487 70.557 93.8041 69.1841V61.9847Z" fill="#3B3B3B"/>
<path d="M120.213 59.8081C123.46 59.8081 125.756 62.1856 125.756 65.5676C125.756 68.8827 123.46 71.2937 120.213 71.2937C116.934 71.2937 114.638 68.8827 114.638 65.5676C114.638 62.1856 116.934 59.8081 120.213 59.8081ZM110.801 65.5676C110.801 70.9589 115.032 74.9437 120.213 74.9437C125.362 74.9437 129.592 70.9589 129.592 65.5676C129.592 60.2099 125.362 56.1582 120.213 56.1582C115.032 56.1582 110.801 60.2099 110.801 65.5676Z" fill="#3B3B3B"/>
<path d="M139.547 56.1582C135.251 56.1582 132.136 58.2678 132.136 61.5829C132.136 65.3667 135.055 66.7062 139.449 67.0745C142.761 67.3759 144.007 67.9451 144.007 69.2511C144.007 70.4901 142.761 71.3272 140.006 71.3272C137.416 71.3272 135.71 70.691 133.907 69.2511C133.677 69.0502 133.448 69.0837 133.251 69.3515L131.71 71.4611C131.513 71.729 131.513 71.9634 131.742 72.1309C134.103 74.14 136.661 74.9437 139.941 74.9437C144.434 74.9437 147.779 72.8341 147.779 69.1841C147.779 65.3667 144.466 63.7929 139.875 63.3576C136.891 63.0562 135.907 62.5205 135.907 61.4489C135.907 60.4109 137.121 59.7746 139.351 59.7746C141.613 59.7746 143.515 60.4443 144.991 61.6498C145.254 61.8842 145.483 61.8507 145.68 61.6163L147.32 59.5402C147.484 59.3058 147.451 59.1049 147.221 58.9375C145.122 57.1627 142.433 56.1582 139.547 56.1582Z" fill="#3B3B3B"/>
<path d="M152.13 56.493L149.998 56.6939C149.736 56.7274 149.605 56.8949 149.605 57.1293V59.5737C149.605 59.8751 149.769 60.0425 150.064 60.0425H152.097V68.8158C152.097 72.3987 153.803 74.9437 157.738 74.9437C159.41 74.9437 160.657 74.5753 161.87 73.7717C162.165 73.6042 162.231 73.4033 162.1 73.1019L161.214 70.9589C161.116 70.7244 160.919 70.5905 160.558 70.7579C159.87 71.1263 159.083 71.2937 158.197 71.2937C156.787 71.2937 155.901 70.4231 155.901 68.7153V60.0425H160.755C161.05 60.0425 161.214 59.8751 161.214 59.5737V56.8949C161.214 56.5935 161.05 56.4261 160.755 56.4261H155.901V52.8766C155.901 52.5752 155.672 52.4078 155.442 52.4078H152.95C152.688 52.4078 152.524 52.5752 152.491 52.8766L152.13 56.493Z" fill="#3B3B3B"/>
<path d="M179.545 69.4185C179.381 69.2176 179.184 69.2176 179.02 69.385C177.315 70.8249 175.544 71.2937 173.314 71.2937C170.428 71.2937 168.395 69.6864 167.772 67.3759H181.808C182.07 67.3759 182.201 67.2085 182.201 66.9071V65.5676C182.201 60.1095 178.463 56.1582 173.15 56.1582C167.805 56.1582 163.804 60.1095 163.804 65.5676C163.804 70.9589 167.706 74.9437 173.314 74.9437C175.938 74.9437 178.725 74.1735 181.086 72.1309C181.25 71.9634 181.283 71.7625 181.119 71.5951L179.545 69.4185ZM173.15 59.8081C175.741 59.8081 178.069 61.4154 178.332 63.7594H167.739C168.264 61.4489 170.494 59.8081 173.15 59.8081Z" fill="#3B3B3B"/>
<path d="M185.928 56.4261C185.633 56.4261 185.469 56.5935 185.469 56.8949V74.207C185.469 74.5083 185.698 74.6758 185.928 74.6758H188.814C189.109 74.6758 189.273 74.5083 189.273 74.207V62.1856C190.421 60.6118 191.896 59.8081 193.7 59.8081C195.897 59.8081 196.979 61.2815 197.504 63.1902C197.603 63.4915 197.799 63.5585 198.094 63.4581L200.685 62.5539C200.948 62.4535 201.046 62.2526 200.98 61.9177C200.292 58.6026 197.799 56.1582 194.061 56.1582C192.093 56.1582 190.552 56.8949 189.273 58.2008H189.109L188.781 56.8279C188.715 56.56 188.551 56.4261 188.322 56.4261H185.928Z" fill="#3B3B3B"/>
<path d="M50 4.76995e-07C27.9086 2.13558e-07 10 17.9086 10 40L50 40L50 4.76995e-07Z" fill="url(#paint0_linear)"/>
<path d="M10 90C10 95.5229 14.4772 100 20 100L20 90H10Z" fill="url(#paint1_linear)"/>
<path d="M20 90C36.5685 90 50 76.5685 50 60H20V90Z" fill="url(#paint2_linear)"/>
<path d="M50 10C33.4315 10 20 23.4315 20 40H50V10Z" fill="url(#paint3_linear)"/>
<path d="M20 40H50V60H20L20 40Z" fill="url(#paint4_linear)"/>
<path d="M0 50C-9.65645e-07 61.0457 8.9543 70 20 70L20 50H0Z" fill="url(#paint5_linear)"/>
<path d="M20 50H30V70H20L20 50Z" fill="url(#paint6_linear)"/>
<path d="M70 30C70 18.9543 61.0457 10 50 10V30H70Z" fill="url(#paint7_linear)"/>
<path d="M50 45C55.5228 45 60 40.5228 60 35H50L50 45Z" fill="url(#paint8_linear)"/>
<circle cx="40" cy="25" r="5" fill="white"/>
<line x1="226" y1="4.37114e-08" x2="226" y2="100" stroke="#3B3B3B" stroke-width="2"/>
<defs>
<linearGradient id="paint0_linear" x1="44.3149" y1="40" x2="12.9886" y2="40" gradientUnits="userSpaceOnUse">
<stop stop-color="#1FA2FF"/>
<stop offset="0.5" stop-color="#12D8FA"/>
<stop offset="1" stop-color="#A6FFCB"/>
</linearGradient>
<linearGradient id="paint1_linear" x1="3.2" y1="92.375" x2="23.5042" y2="-5.40895" gradientUnits="userSpaceOnUse">
<stop stop-color="#20E2AC"/>
<stop offset="0.0666667" stop-color="#20E0AC"/>
<stop offset="0.133333" stop-color="#22DCAE"/>
<stop offset="0.2" stop-color="#24D3B0"/>
<stop offset="0.266667" stop-color="#28C8B2"/>
<stop offset="0.333333" stop-color="#2CB9B6"/>
<stop offset="0.4" stop-color="#31A7BA"/>
<stop offset="0.466667" stop-color="#3793BF"/>
<stop offset="0.533333" stop-color="#3D7EC4"/>
<stop offset="0.6" stop-color="#436AC9"/>
<stop offset="0.666667" stop-color="#4858CD"/>
<stop offset="0.733333" stop-color="#4C49D1"/>
<stop offset="0.8" stop-color="#503ED3"/>
<stop offset="0.866667" stop-color="#5235D5"/>
<stop offset="0.933333" stop-color="#5431D7"/>
<stop offset="1" stop-color="#542FD7"/>
</linearGradient>
<linearGradient id="paint2_linear" x1="3.2" y1="92.375" x2="23.5042" y2="-5.40895" gradientUnits="userSpaceOnUse">
<stop stop-color="#20E2AC"/>
<stop offset="0.0666667" stop-color="#20E0AC"/>
<stop offset="0.133333" stop-color="#22DCAE"/>
<stop offset="0.2" stop-color="#24D3B0"/>
<stop offset="0.266667" stop-color="#28C8B2"/>
<stop offset="0.333333" stop-color="#2CB9B6"/>
<stop offset="0.4" stop-color="#31A7BA"/>
<stop offset="0.466667" stop-color="#3793BF"/>
<stop offset="0.533333" stop-color="#3D7EC4"/>
<stop offset="0.6" stop-color="#436AC9"/>
<stop offset="0.666667" stop-color="#4858CD"/>
<stop offset="0.733333" stop-color="#4C49D1"/>
<stop offset="0.8" stop-color="#503ED3"/>
<stop offset="0.866667" stop-color="#5235D5"/>
<stop offset="0.933333" stop-color="#5431D7"/>
<stop offset="1" stop-color="#542FD7"/>
</linearGradient>
<linearGradient id="paint3_linear" x1="3.2" y1="92.375" x2="23.5042" y2="-5.40895" gradientUnits="userSpaceOnUse">
<stop stop-color="#20E2AC"/>
<stop offset="0.0666667" stop-color="#20E0AC"/>
<stop offset="0.133333" stop-color="#22DCAE"/>
<stop offset="0.2" stop-color="#24D3B0"/>
<stop offset="0.266667" stop-color="#28C8B2"/>
<stop offset="0.333333" stop-color="#2CB9B6"/>
<stop offset="0.4" stop-color="#31A7BA"/>
<stop offset="0.466667" stop-color="#3793BF"/>
<stop offset="0.533333" stop-color="#3D7EC4"/>
<stop offset="0.6" stop-color="#436AC9"/>
<stop offset="0.666667" stop-color="#4858CD"/>
<stop offset="0.733333" stop-color="#4C49D1"/>
<stop offset="0.8" stop-color="#503ED3"/>
<stop offset="0.866667" stop-color="#5235D5"/>
<stop offset="0.933333" stop-color="#5431D7"/>
<stop offset="1" stop-color="#542FD7"/>
</linearGradient>
<linearGradient id="paint4_linear" x1="3.2" y1="92.375" x2="23.5042" y2="-5.40895" gradientUnits="userSpaceOnUse">
<stop stop-color="#20E2AC"/>
<stop offset="0.0666667" stop-color="#20E0AC"/>
<stop offset="0.133333" stop-color="#22DCAE"/>
<stop offset="0.2" stop-color="#24D3B0"/>
<stop offset="0.266667" stop-color="#28C8B2"/>
<stop offset="0.333333" stop-color="#2CB9B6"/>
<stop offset="0.4" stop-color="#31A7BA"/>
<stop offset="0.466667" stop-color="#3793BF"/>
<stop offset="0.533333" stop-color="#3D7EC4"/>
<stop offset="0.6" stop-color="#436AC9"/>
<stop offset="0.666667" stop-color="#4858CD"/>
<stop offset="0.733333" stop-color="#4C49D1"/>
<stop offset="0.8" stop-color="#503ED3"/>
<stop offset="0.866667" stop-color="#5235D5"/>
<stop offset="0.933333" stop-color="#5431D7"/>
<stop offset="1" stop-color="#542FD7"/>
</linearGradient>
<linearGradient id="paint5_linear" x1="3.2" y1="92.375" x2="23.5042" y2="-5.40895" gradientUnits="userSpaceOnUse">
<stop stop-color="#20E2AC"/>
<stop offset="0.0666667" stop-color="#20E0AC"/>
<stop offset="0.133333" stop-color="#22DCAE"/>
<stop offset="0.2" stop-color="#24D3B0"/>
<stop offset="0.266667" stop-color="#28C8B2"/>
<stop offset="0.333333" stop-color="#2CB9B6"/>
<stop offset="0.4" stop-color="#31A7BA"/>
<stop offset="0.466667" stop-color="#3793BF"/>
<stop offset="0.533333" stop-color="#3D7EC4"/>
<stop offset="0.6" stop-color="#436AC9"/>
<stop offset="0.666667" stop-color="#4858CD"/>
<stop offset="0.733333" stop-color="#4C49D1"/>
<stop offset="0.8" stop-color="#503ED3"/>
<stop offset="0.866667" stop-color="#5235D5"/>
<stop offset="0.933333" stop-color="#5431D7"/>
<stop offset="1" stop-color="#542FD7"/>
</linearGradient>
<linearGradient id="paint6_linear" x1="3.2" y1="92.375" x2="23.5042" y2="-5.40895" gradientUnits="userSpaceOnUse">
<stop stop-color="#20E2AC"/>
<stop offset="0.0666667" stop-color="#20E0AC"/>
<stop offset="0.133333" stop-color="#22DCAE"/>
<stop offset="0.2" stop-color="#24D3B0"/>
<stop offset="0.266667" stop-color="#28C8B2"/>
<stop offset="0.333333" stop-color="#2CB9B6"/>
<stop offset="0.4" stop-color="#31A7BA"/>
<stop offset="0.466667" stop-color="#3793BF"/>
<stop offset="0.533333" stop-color="#3D7EC4"/>
<stop offset="0.6" stop-color="#436AC9"/>
<stop offset="0.666667" stop-color="#4858CD"/>
<stop offset="0.733333" stop-color="#4C49D1"/>
<stop offset="0.8" stop-color="#503ED3"/>
<stop offset="0.866667" stop-color="#5235D5"/>
<stop offset="0.933333" stop-color="#5431D7"/>
<stop offset="1" stop-color="#542FD7"/>
</linearGradient>
<linearGradient id="paint7_linear" x1="74.6154" y1="10" x2="74.6154" y2="45" gradientUnits="userSpaceOnUse">
<stop stop-color="#FF52A1"/>
<stop offset="0.0666667" stop-color="#FF53A0"/>
<stop offset="0.133333" stop-color="#FF579D"/>
<stop offset="0.2" stop-color="#FF5D97"/>
<stop offset="0.266667" stop-color="#FE668F"/>
<stop offset="0.333333" stop-color="#FE7184"/>
<stop offset="0.4" stop-color="#FE7E78"/>
<stop offset="0.466667" stop-color="#FD8D6B"/>
<stop offset="0.533333" stop-color="#FD9D5C"/>
<stop offset="0.6" stop-color="#FCAC4F"/>
<stop offset="0.666667" stop-color="#FCB943"/>
<stop offset="0.733333" stop-color="#FCC438"/>
<stop offset="0.8" stop-color="#FBCD30"/>
<stop offset="0.866667" stop-color="#FBD32A"/>
<stop offset="0.933333" stop-color="#FBD727"/>
<stop offset="1" stop-color="#FBD826"/>
</linearGradient>
<linearGradient id="paint8_linear" x1="74.6154" y1="10" x2="74.6154" y2="45" gradientUnits="userSpaceOnUse">
<stop stop-color="#FF52A1"/>
<stop offset="0.0666667" stop-color="#FF53A0"/>
<stop offset="0.133333" stop-color="#FF579D"/>
<stop offset="0.2" stop-color="#FF5D97"/>
<stop offset="0.266667" stop-color="#FE668F"/>
<stop offset="0.333333" stop-color="#FE7184"/>
<stop offset="0.4" stop-color="#FE7E78"/>
<stop offset="0.466667" stop-color="#FD8D6B"/>
<stop offset="0.533333" stop-color="#FD9D5C"/>
<stop offset="0.6" stop-color="#FCAC4F"/>
<stop offset="0.666667" stop-color="#FCB943"/>
<stop offset="0.733333" stop-color="#FCC438"/>
<stop offset="0.8" stop-color="#FBCD30"/>
<stop offset="0.866667" stop-color="#FBD32A"/>
<stop offset="0.933333" stop-color="#FBD727"/>
<stop offset="1" stop-color="#FBD826"/>
</linearGradient>
</defs>
</svg>
