<svg width="36" height="36" viewBox="0 0 36 36" fill="none" xmlns="http://www.w3.org/2000/svg">
<path d="M32.9496 20.8924C32.9496 29.2054 26.2336 35.9449 17.9496 35.9449C9.66563 35.9449 2.94965 29.2054 2.94965 20.8924C2.94965 12.5794 9.66563 5.83984 17.9496 5.83984C26.2336 5.83984 32.9496 12.5794 32.9496 20.8924Z" fill="#FFCC4D"/>
<path d="M25.6377 25.5133C25.4917 25.3799 25.2717 25.3718 25.1157 25.4902C25.0837 25.5133 21.8856 27.8876 17.9506 27.8876C14.0256 27.8876 10.8176 25.5143 10.7856 25.4902C10.6286 25.3728 10.4096 25.3829 10.2626 25.5133C10.1166 25.6458 10.0836 25.8645 10.1856 26.0321C10.2906 26.2108 12.8336 30.3652 17.9496 30.3652C23.0647 30.3652 25.6087 26.2098 25.7147 26.0331C25.8157 25.8635 25.7837 25.6458 25.6377 25.5133ZM14.6556 19.6529C14.6556 21.2515 13.7336 22.546 12.5966 22.546C11.4596 22.546 10.5376 21.2515 10.5376 19.6529C10.5376 18.0563 11.4586 16.7608 12.5966 16.7608C13.7346 16.7608 14.6556 18.0553 14.6556 19.6529ZM25.3617 19.6529C25.3617 21.2515 24.4397 22.546 23.3017 22.546C22.1646 22.546 21.2426 21.2515 21.2426 19.6529C21.2426 18.0563 22.1646 16.7608 23.3017 16.7608C24.4397 16.7598 25.3617 18.0553 25.3617 19.6529ZM31.9497 5.97021C30.7597 7.41625 28.7677 7.92803 26.8737 8.09863C26.5557 6.55525 25.1907 0.822266 22.4496 0.822266C20.0466 0.822266 19.1806 1.91708 17.9496 1.91708C16.7186 1.91708 15.8526 0.822266 13.4496 0.822266C10.7086 0.822266 9.34364 6.55525 9.02564 8.09863C7.13164 7.92803 5.13964 7.41525 3.94964 5.97021C1.79664 3.35509 -1.05037 5.28181 0.391634 8.15181C2.66964 12.6846 8.17964 15.8747 17.9496 15.8747C27.7187 15.8747 33.2287 12.6846 35.5077 8.15181C36.9497 5.28181 34.1027 3.35509 31.9497 5.97021Z" fill="#664500"/>
<path d="M21.4496 2.8291C19.5806 2.8291 18.9066 3.79649 17.9496 3.79649C16.9926 3.79649 16.3186 2.8291 14.4496 2.8291C11.9866 2.8291 10.9496 9.60281 10.9496 9.60281C10.9496 9.60281 12.2316 11.8607 17.9496 11.8607C23.6686 11.8607 24.9496 9.60281 24.9496 9.60281C24.9496 9.60281 23.9126 2.8291 21.4496 2.8291Z" fill="#825D0E"/>
<path d="M10.9496 5.83984C10.9496 5.83984 13.0236 7.83984 17.9496 7.83984C22.8766 7.83984 24.9496 5.83984 24.9496 5.83984V7.83984C24.9496 7.83984 22.7276 9.83984 17.9496 9.83984C13.1716 9.83984 10.9496 7.83984 10.9496 7.83984V5.83984Z" fill="#664500"/>
</svg>
