<svg width="36" height="37" viewBox="0 0 36 37" fill="none" xmlns="http://www.w3.org/2000/svg">
<path d="M36 18.6266C36 28.6024 27.941 36.6897 18 36.6897C8.059 36.6897 0 28.6024 0 18.6266C0 8.65073 8.059 0.563477 18 0.563477C27.941 0.563477 36 8.65073 36 18.6266Z" fill="#FFCC4D"/>
<path fill-rule="evenodd" clip-rule="evenodd" d="M1.24004 11.6194C1.48004 11.8592 2.67804 12.5798 2.91704 13.3003C3.15704 14.0199 3.63704 18.1014 5.07504 19.3026C6.55804 20.539 12.152 20.0794 13.223 19.5435C15.62 18.3442 15.914 14.9963 16.338 13.3003C16.577 12.3399 18.015 12.3399 18.015 12.3399C18.015 12.3399 19.453 12.3399 19.693 13.2993C20.117 14.9963 20.413 18.3442 22.808 19.5425C23.88 20.0794 29.4741 20.54 30.9591 19.3036C32.3951 18.1024 32.8741 14.0209 33.1141 13.3003C33.3521 12.5808 34.5521 11.8602 34.7911 11.6204C35.0321 11.3805 35.0321 10.4201 34.7911 10.1793C34.3121 9.69955 28.6571 9.27204 22.568 9.9394C21.353 10.0729 20.891 10.4191 18.014 10.4191C15.139 10.4191 14.675 10.0719 13.461 9.9394C7.37604 9.27103 1.72004 9.69855 1.24004 10.1783C1.00104 10.4181 1.00104 11.3795 1.24004 11.6194Z" fill="#292F33"/>
<path d="M27.335 24.2755C27.157 24.114 26.891 24.1039 26.7 24.2464C26.661 24.2755 22.778 27.1553 18 27.1553C13.234 27.1553 9.33796 24.2755 9.29996 24.2464C9.10896 24.1039 8.84295 24.116 8.66495 24.2755C8.48795 24.436 8.44795 24.7008 8.57095 24.9054C8.69995 25.1211 11.788 30.1646 18 30.1646C24.212 30.1646 27.301 25.1211 27.429 24.9054C27.552 24.6998 27.513 24.436 27.335 24.2755Z" fill="#664500"/>
</svg>
