<svg width="36" height="37" viewBox="0 0 36 37" fill="none" xmlns="http://www.w3.org/2000/svg">
<path d="M36 18.4851C36 28.461 27.941 36.5483 18 36.5483C8.059 36.5483 0 28.461 0 18.4851C0 8.50919 8.059 0.421875 18 0.421875C27.941 0.421875 36 8.50919 36 18.4851Z" fill="#FFCC4D"/>
<path d="M18 21.4953C14.377 21.4953 11.973 21.0718 9 20.4918C8.321 20.3603 7 20.4918 7 22.4988C7 26.513 11.595 31.5306 18 31.5306C24.404 31.5306 29 26.513 29 22.4988C29 20.4918 27.679 20.3593 27 20.4918C24.027 21.0718 21.623 21.4953 18 21.4953Z" fill="#664500"/>
<path d="M9 22.499C9 22.499 12 23.499 18 23.499C24 23.499 27 22.499 27 22.499C27 22.499 25 26.499 18 26.499C11 26.499 9 22.499 9 22.499Z" fill="white"/>
<path d="M15.682 4.85048L11.14 5.65428L8.80002 1.38639C8.54202 0.915748 8.01202 0.663869 7.48802 0.756191C6.96102 0.849517 6.55102 1.26898 6.46902 1.79883L5.72402 6.61263L1.18202 7.41643C0.647018 7.51076 0.234018 7.94327 0.161018 8.48416C0.0880182 9.02505 0.372018 9.55088 0.864018 9.7857L4.93402 11.7245L4.18602 16.5533C4.10302 17.0912 4.37502 17.621 4.85902 17.8669C5.03802 17.9572 5.23002 18.0004 5.42102 18.0004C5.74802 18.0004 6.07102 17.8719 6.31202 17.6271L9.82402 14.0536L14.342 16.2061C14.832 16.4389 15.416 16.3295 15.788 15.9332C16.16 15.5368 16.234 14.9457 15.973 14.469L13.625 10.1861L16.79 6.96686C17.172 6.57851 17.259 5.98644 17.007 5.50276C16.753 5.01907 16.214 4.75715 15.682 4.85048V4.85048ZM20.318 4.85048L24.86 5.65428L27.2 1.38639C27.458 0.915748 27.988 0.663869 28.512 0.756191C29.038 0.849517 29.448 1.26898 29.53 1.79883L30.275 6.61263L34.817 7.41643C35.353 7.51076 35.766 7.94227 35.838 8.48316C35.91 9.02404 35.627 9.54988 35.135 9.7847L31.065 11.7235L31.813 16.5523C31.896 17.0902 31.624 17.62 31.14 17.8659C30.961 17.9562 30.769 17.9994 30.578 17.9994C30.251 17.9994 29.928 17.8709 29.687 17.6261L26.175 14.0526L21.657 16.2051C21.167 16.4379 20.583 16.3285 20.211 15.9322C19.839 15.5358 19.765 14.9447 20.026 14.468L22.374 10.1861L19.209 6.96686C18.827 6.57851 18.74 5.98644 18.992 5.50276C19.247 5.01907 19.786 4.75715 20.318 4.85048V4.85048Z" fill="#E95F28"/>
</svg>
