<svg width="36" height="37" viewBox="0 0 36 37" fill="none" xmlns="http://www.w3.org/2000/svg">
<path d="M36 18.205C36 28.1808 27.941 36.2679 18 36.2679C8.059 36.2679 0 28.1808 0 18.205C0 8.22926 8.059 0.14209 18 0.14209C27.941 0.14209 36 8.22926 36 18.205Z" fill="#FFCC4D"/>
<path d="M18 22.0669C15.034 22.0669 13.065 21.7197 10.631 21.245C10.074 21.1386 8.99298 21.245 8.99298 22.8888C8.99298 26.1753 12.756 30.2837 18 30.2837C23.244 30.2837 27.007 26.1753 27.007 22.8888C27.007 21.245 25.925 21.1376 25.369 21.245C22.935 21.7197 20.967 22.0669 18 22.0669Z" fill="#664500"/>
<path d="M16.65 3.43441C15.791 0.994836 13.126 -0.285662 10.694 0.57436C9.21801 1.09619 8.17301 2.29139 7.76601 3.6893C6.57501 2.85738 5.01501 2.58542 3.54101 3.10726C1.11101 3.96828 -0.166985 6.64468 0.692015 9.08425C0.814014 9.42947 0.976014 9.74959 1.16401 10.0456C3.11501 13.6403 8.75201 16.1671 12.165 16.1982C14.802 14.0236 17.611 8.50622 16.883 4.48008C16.845 4.13085 16.77 3.77962 16.65 3.43441ZM19.35 3.43441C20.209 0.994836 22.875 -0.285662 25.306 0.57436C26.782 1.09619 27.827 2.29139 28.235 3.6893C29.426 2.85738 30.986 2.58542 32.46 3.10726C34.89 3.96828 36.167 6.64468 35.31 9.08425C35.187 9.42947 35.026 9.74959 34.837 10.0456C32.886 13.6403 27.249 16.1671 23.835 16.1982C21.198 14.0236 18.39 8.50622 19.118 4.48008C19.155 4.13085 19.23 3.77962 19.35 3.43441Z" fill="#DD2E44"/>
</svg>
