<?xml version="1.0" encoding="UTF-8" standalone="no"?>
<svg
   xmlns:dc="http://purl.org/dc/elements/1.1/"
   xmlns:cc="http://creativecommons.org/ns#"
   xmlns:rdf="http://www.w3.org/1999/02/22-rdf-syntax-ns#"
   xmlns:svg="http://www.w3.org/2000/svg"
   xmlns="http://www.w3.org/2000/svg"
   xmlns:sodipodi="http://sodipodi.sourceforge.net/DTD/sodipodi-0.dtd"
   xmlns:inkscape="http://www.inkscape.org/namespaces/inkscape"
   inkscape:version="1.0 (4035a4fb49, 2020-05-01)"
   sodipodi:docname="promo-logo.svg"
   id="svg87"
   version="1.1"
   fill="none"
   viewBox="0 0 261 239"
   height="239"
   width="261">
  <metadata
     id="metadata91">
    <rdf:RDF>
      <cc:Work
         rdf:about="">
        <dc:format>image/svg+xml</dc:format>
        <dc:type
           rdf:resource="http://purl.org/dc/dcmitype/StillImage" />
      </cc:Work>
    </rdf:RDF>
  </metadata>
  <sodipodi:namedview
     inkscape:current-layer="svg87"
     inkscape:window-maximized="1"
     inkscape:window-y="0"
     inkscape:window-x="0"
     inkscape:cy="107.51329"
     inkscape:cx="142.88596"
     inkscape:zoom="1.426048"
     inkscape:guide-bbox="true"
     showguides="true"
     showgrid="false"
     id="namedview89"
     inkscape:window-height="704"
     inkscape:window-width="1024"
     inkscape:pageshadow="2"
     inkscape:pageopacity="0"
     guidetolerance="10"
     gridtolerance="10"
     objecttolerance="10"
     borderopacity="1"
     bordercolor="#666666"
     pagecolor="#ffffff"
     inkscape:document-rotation="0">
    <sodipodi:guide
       id="guide93"
       orientation="0,-1"
       position="88.356073,168.17489" />
    <sodipodi:guide
       id="guide95"
       orientation="0,-1"
       position="9.4211618,64.460581" />
    <sodipodi:guide
       id="guide97"
       orientation="1,0"
       position="128.995,176.1006" />
    <sodipodi:guide
       id="guide99"
       orientation="1,0"
       position="62.87812,205.42549" />
    <sodipodi:guide
       id="guide101"
       orientation="1,0"
       position="197.8444,206.76971" />
  </sodipodi:namedview>
  <circle
     id="circle2"
     fill="#B0A8A8"
     r="97.9364"
     cy="126.981"
     cx="131.724"
     opacity="0.2" />
  <g
     transform="translate(-29.981179,-104.5509)"
     id="g8"
     clip-path="url(#clip0)">
    <path
       id="path4"
       fill="#3d5a96"
       d="m 92.8594,206.716 c 0,-17.31 -14.0294,-31.34 -31.3397,-31.34 -17.3103,0 -31.3397,14.03 -31.3397,31.34 0,15.645 11.4586,28.61 26.4429,30.96 v -21.901 h -7.9574 v -9.059 h 7.9574 v -6.904 c 0,-7.854 4.6764,-12.193 11.838,-12.193 3.4278,0 7.0147,0.612 7.0147,0.612 v 7.712 h -3.9541 c -3.893,0 -5.105,2.418 -5.105,4.897 v 5.876 h 8.6919 l -1.3895,9.059 h -7.3024 v 21.901 c 14.9843,-2.35 26.4429,-15.315 26.4429,-30.96 z" />
    <path
       id="path6"
       fill="#ffffff"
       d="m 73.719,215.775 1.3895,-9.059 h -8.6919 v -5.876 c 0,-2.479 1.212,-4.897 5.1049,-4.897 h 3.9542 v -7.712 c 0,0 -3.5869,-0.612 -7.0147,-0.612 -7.1616,0 -11.8381,4.339 -11.8381,12.193 v 6.904 h -7.9573 v 9.059 h 7.9573 v 21.901 c 1.5976,0.251 3.232,0.38 4.8969,0.38 1.6649,0 3.2992,-0.129 4.8968,-0.38 v -21.901 z" />
  </g>
  <path
     id="path10"
     fill="#f68634"
     d="m 165.508,205.726 c 0,-17.369 14,-31.449 31.271,-31.449 17.271,0 31.272,14.08 31.272,31.449 0,17.369 -14.001,31.45 -31.272,31.45 -17.271,0 -31.271,-14.081 -31.271,-31.45 z" />
  <path
     id="path12"
     fill="#ffffff"
     d="m 200.655,214.192 5.355,5.388 c 1.097,1.101 1.097,2.89 0,3.993 -1.096,1.102 -2.872,1.102 -3.967,0 l -5.265,-5.295 -5.26,5.295 c -0.549,0.55 -1.267,0.826 -1.986,0.826 -0.718,0 -1.435,-0.276 -1.984,-0.826 -1.096,-1.103 -1.096,-2.891 -0.001,-3.993 l 5.355,-5.388 c -1.949,-0.447 -3.83,-1.224 -5.562,-2.318 -1.311,-0.831 -1.704,-2.573 -0.878,-3.893 0.823,-1.322 2.555,-1.72 3.868,-0.888 3.922,2.482 8.973,2.482 12.897,0 1.313,-0.832 3.045,-0.434 3.87,0.888 0.826,1.319 0.431,3.062 -0.88,3.893 -1.732,1.095 -3.612,1.871 -5.562,2.318 z" />
  <path
     id="path14"
     fill="#ffffff"
     d="m 187.176,196.691 c 0,5.313 4.296,9.635 9.579,9.635 5.284,0 9.579,-4.322 9.579,-9.635 0,-5.315 -4.295,-9.638 -9.579,-9.638 -5.283,0 -9.579,4.323 -9.579,9.638 z m 13.545,0 c 0,-2.201 -1.779,-3.99 -3.966,-3.99 -2.186,0 -3.966,1.789 -3.966,3.99 0,2.199 1.78,3.989 3.966,3.989 2.187,0 3.966,-1.79 3.966,-3.989 z"
     clip-rule="evenodd"
     fill-rule="evenodd" />
  <circle
     id="circle16"
     fill="#4981c0"
     r="31.339701"
     cy="102.3167"
     cx="229.66" />
  <path
     id="path18"
     fill="#ffffff"
     d="m 248.356,93.8519 c 0.289,-0.872 0,-1.5062 -1.284,-1.5062 h -4.264 c -1.076,0 -1.573,0.5549 -1.863,1.1495 0,0 -2.194,5.07319 -5.257,8.36319 -0.994,0.952 -1.449,1.269 -1.988,1.269 -0.289,0 -0.662,-0.31699 -0.662,-1.189 V 93.8123 c 0,-1.0306 -0.331,-1.5063 -1.242,-1.5063 h -6.706 c -0.663,0 -1.077,0.4757 -1.077,0.9514 0,0.9909 1.532,1.2287 1.698,4.003405 v 6.024595 c 0,1.309 -0.249,1.546 -0.787,1.546 -1.449,0 -4.968,-5.113 -7.079,-10.9398 -0.414,-1.1495 -0.828,-1.5856 -1.905,-1.5856 h -4.305 c -1.242,0 -1.449,0.555 -1.449,1.1496 0,1.0702 1.449,6.4608 6.748,13.5958 3.519,4.876 8.528,7.492 13.041,7.492 2.732,0 3.063,-0.595 3.063,-1.586 v -3.686 c 0,-1.189 0.248,-1.387 1.118,-1.387 0.621,0 1.739,0.317 4.264,2.655 2.898,2.775 3.395,4.043 5.009,4.043 h 4.264 c 1.242,0 1.822,-0.594 1.491,-1.744 -0.373,-1.149 -1.781,-2.814 -3.602,-4.796 -0.994,-1.11 -2.484,-2.339 -2.939,-2.933 -0.621,-0.793 -0.456,-1.11 0,-1.824 -0.042,0 5.174,-7.0552 5.713,-9.4335 z"
     clip-rule="evenodd"
     fill-rule="evenodd" />
  <path
     id="path20"
     fill="url(#paint0_linear)"
     d="M158.324 119.86C155.53 105.874 143.559 95.3325 128.995 95.3325C117.423 95.3325 107.447 102.021 102.459 111.751C90.4881 112.968 81.1103 123.305 81.1103 135.873C81.1103 149.251 91.8852 160.198 105.053 160.198H156.928C167.901 160.198 176.879 151.076 176.879 139.927C176.879 129.184 168.7 120.468 158.324 119.86Z" />
  <path
     style="fill:url(#paint1_linear);stroke-width:1"
     id="path22"
     fill="url(#paint1_linear)"
     d="m 31.60542,205.6474 c 0,-17.3689 14.0007,-31.4494 31.2715,-31.4494 17.2708,0 31.2716,14.0805 31.2716,31.4494 0,17.37 -14.0008,31.45 -31.2716,31.45 -17.2708,0 -31.2715,-14.08 -31.2715,-31.45 z" />
  <mask
     height="64"
     width="63"
     y="72"
     x="0"
     maskUnits="userSpaceOnUse"
     mask-type="alpha"
     id="mask0">
    <path
       id="path24"
       fill="white"
       d="M0 104.176C0 86.8071 14.0007 72.7266 31.2715 72.7266C48.5423 72.7266 62.5431 86.8071 62.5431 104.176C62.5431 121.546 48.5423 135.626 31.2715 135.626C14.0007 135.626 0 121.546 0 104.176Z"
       clip-rule="evenodd"
       fill-rule="evenodd" />
  </mask>
  <g
     transform="translate(31.60542,101.4714)"
     id="g29"
     mask="url(#mask0)">
    <path
       id="path27"
       fill="#ffffff"
       d="m 31.2731,85.5029 c -5.0426,0 -5.6755,0.0222 -7.656,0.1128 -1.9767,0.0911 -3.3259,0.4058 -4.5065,0.8676 -1.2212,0.4769 -2.2572,1.115 -3.2892,2.1533 -1.0328,1.0379 -1.6672,2.0797 -2.143,3.3075 -0.4604,1.1877 -0.7737,2.5451 -0.8627,4.5322 -0.0885,1.9919 -0.1118,2.6287 -0.1118,7.6997 0,5.072 0.0225,5.706 0.1122,7.698 0.0909,1.988 0.4039,3.345 0.8627,4.532 0.4746,1.229 1.109,2.27 2.1414,3.308 1.0317,1.039 2.0676,1.679 3.288,2.156 1.1814,0.461 2.531,0.776 4.5073,0.867 1.9806,0.091 2.613,0.113 7.6553,0.113 5.0431,0 5.674,-0.022 7.6545,-0.113 1.9767,-0.091 3.3275,-0.406 4.5089,-0.867 1.2208,-0.477 2.2552,-1.117 3.2868,-2.156 1.0329,-1.038 1.6673,-2.079 2.1431,-3.307 0.4564,-1.188 0.7697,-2.545 0.8626,-4.532 0.0889,-1.992 0.1122,-2.627 0.1122,-7.699 0,-5.071 -0.0233,-5.7074 -0.1122,-7.6993 -0.0929,-1.9879 -0.4062,-3.3449 -0.8626,-4.5322 -0.4758,-1.2282 -1.1102,-2.27 -2.1431,-3.3079 -1.0328,-1.0387 -2.0656,-1.6767 -3.288,-2.1533 -1.1837,-0.4618 -2.5337,-0.7765 -4.5104,-0.8676 -1.9805,-0.0906 -2.611,-0.1128 -7.6553,-0.1128 z m -1.6655,3.3534 c 0.3235,-6e-4 0.6714,-4e-4 1.0468,-2e-4 l 0.6189,2e-4 c 4.9576,0 5.5451,0.0178 7.5029,0.1073 1.8103,0.0833 2.7929,0.3875 3.4474,0.6431 0.8665,0.3385 1.4842,0.743 2.1337,1.3966 0.6499,0.6536 1.0522,1.276 1.3895,2.1475 0.2541,0.6574 0.557,1.6456 0.6394,3.4662 0.089,1.9685 0.1083,2.5599 0.1083,7.543 0,4.984 -0.0193,5.575 -0.1083,7.544 -0.0828,1.82 -0.3853,2.809 -0.6394,3.466 -0.3366,0.871 -0.7396,1.492 -1.3895,2.145 -0.6499,0.654 -1.2668,1.058 -2.1337,1.397 -0.6538,0.256 -1.6371,0.56 -3.4474,0.643 -1.9574,0.09 -2.5453,0.109 -7.5029,0.109 -4.958,0 -5.5455,-0.019 -7.5029,-0.109 -1.8103,-0.084 -2.7929,-0.388 -3.4478,-0.644 -0.8665,-0.338 -1.4854,-0.743 -2.1352,-1.396 -0.6499,-0.654 -1.0522,-1.275 -1.3895,-2.147 -0.2542,-0.657 -0.5571,-1.645 -0.6394,-3.466 -0.089,-1.968 -0.1068,-2.56 -0.1068,-7.546 0,-4.9869 0.0178,-5.5751 0.1068,-7.5436 0.0827,-1.8207 0.3852,-2.8088 0.6394,-3.4671 0.3365,-0.8714 0.7396,-1.4939 1.3895,-2.1474 0.6498,-0.6536 1.2687,-1.0582 2.1352,-1.3974 0.6545,-0.2568 1.6375,-0.5602 3.4478,-0.6439 1.7129,-0.0778 2.3767,-0.1011 5.8372,-0.105 z m 9.3487,5.3441 c 0,-1.2331 0.998,-2.2322 2.2281,-2.2322 v -7e-4 c 1.2301,0 2.2281,1.0001 2.2281,2.2329 0,1.2328 -0.998,2.233 -2.2281,2.233 -1.2301,0 -2.2281,-1.0002 -2.2281,-2.233 z m -7.6836,0.3864 c -5.2657,2e-4 -9.5348,4.2938 -9.5348,9.5892 0,5.296 4.2694,9.588 9.5352,9.588 5.2659,0 9.5337,-4.292 9.5337,-9.588 0,-5.2955 -4.2682,-9.5892 -9.5341,-9.5892 z m 6.1897,9.5902 c 0,-3.438 -2.7712,-6.2249 -6.1892,-6.2249 -3.4184,0 -6.1892,2.7869 -6.1892,6.2249 0,3.437 2.7708,6.224 6.1892,6.224 3.418,0 6.1892,-2.787 6.1892,-6.224 z"
       clip-rule="evenodd"
       fill-rule="evenodd" />
  </g>
  <path
     id="path31"
     fill="url(#paint2_linear)"
     d="M128.995 62.8994C146.266 62.8994 160.267 48.8189 160.267 31.4497C160.267 14.0805 146.266 0 128.995 0C111.725 0 97.7238 14.0805 97.7238 31.4497C97.7238 48.8189 111.725 62.8994 128.995 62.8994Z" />
  <path
     id="path33"
     fill="white"
     d="M109.37 32.9884C113.026 30.9634 117.106 29.2731 120.919 27.5743C127.479 24.7918 134.064 22.0575 140.716 19.5119C142.01 19.0782 144.336 18.6541 144.564 20.583C144.439 23.3133 143.925 26.0277 143.573 28.7421C142.679 34.7112 141.645 40.6599 140.637 46.6094C140.29 48.5913 137.822 49.6171 136.242 48.3489C132.446 45.7703 128.621 43.2168 124.874 40.5784C123.646 39.324 124.785 37.5225 125.881 36.6268C129.007 33.5282 132.323 30.8956 135.286 27.6368C136.085 25.6958 133.724 27.3317 132.945 27.8329C128.665 30.7992 124.489 33.9465 119.977 36.5534C117.672 37.8295 114.985 36.739 112.682 36.027C110.616 35.1668 107.589 34.3002 109.37 32.9887L109.37 32.9884Z" />
  <defs
     id="defs85">
    <linearGradient
       gradientUnits="userSpaceOnUse"
       y2="160.198"
       x2="198.98"
       y1="95.3325"
       x1="198.98"
       id="paint0_linear">
      <stop
         id="stop35"
         stop-color="#FF52A1" />
      <stop
         id="stop37"
         stop-color="#FF53A0"
         offset="0.0666667" />
      <stop
         id="stop39"
         stop-color="#FF579D"
         offset="0.133333" />
      <stop
         id="stop41"
         stop-color="#FF5D97"
         offset="0.2" />
      <stop
         id="stop43"
         stop-color="#FE668F"
         offset="0.266667" />
      <stop
         id="stop45"
         stop-color="#FE7184"
         offset="0.333333" />
      <stop
         id="stop47"
         stop-color="#FE7E78"
         offset="0.4" />
      <stop
         id="stop49"
         stop-color="#FD8D6B"
         offset="0.466667" />
      <stop
         id="stop51"
         stop-color="#FD9D5C"
         offset="0.533333" />
      <stop
         id="stop53"
         stop-color="#FCAC4F"
         offset="0.6" />
      <stop
         id="stop55"
         stop-color="#FCB943"
         offset="0.666667" />
      <stop
         id="stop57"
         stop-color="#FCC438"
         offset="0.733333" />
      <stop
         id="stop59"
         stop-color="#FBCD30"
         offset="0.8" />
      <stop
         id="stop61"
         stop-color="#FBD32A"
         offset="0.866667" />
      <stop
         id="stop63"
         stop-color="#FBD727"
         offset="0.933333" />
      <stop
         id="stop65"
         stop-color="#FBD826"
         offset="1" />
    </linearGradient>
    <linearGradient
       gradientTransform="translate(31.60542,101.4714)"
       gradientUnits="userSpaceOnUse"
       y2="79.5505"
       x2="56.2985"
       y1="127.109"
       x1="8.46937"
       id="paint1_linear">
      <stop
         id="stop68"
         stop-color="#FDBF65" />
      <stop
         id="stop70"
         stop-color="#FC6644"
         offset="0.427083" />
      <stop
         id="stop72"
         stop-color="#E93385"
         offset="0.708333" />
      <stop
         id="stop74"
         stop-color="#984EBA"
         offset="1" />
    </linearGradient>
    <linearGradient
       gradientUnits="userSpaceOnUse"
       y2="47.1096"
       x2="123.635"
       y1="10.4853"
       x1="139.422"
       id="paint2_linear">
      <stop
         id="stop77"
         stop-color="#37AEE2" />
      <stop
         id="stop79"
         stop-color="#1E96C8"
         offset="1" />
    </linearGradient>
    <clipPath
       id="clip0">
      <rect
         id="rect82"
         fill="white"
         height="62.6793"
         width="62.6793"
         y="175.376"
         x="30.18" />
    </clipPath>
  </defs>
</svg>
