<svg width="48" height="44" viewBox="0 0 48 44" fill="none" xmlns="http://www.w3.org/2000/svg">
<path d="M48 14.5003C48 9.44067 43.7019 5.33902 38.4 5.33902C36.7995 5.33902 35.2937 5.71856 33.9675 6.37818C31.1122 2.67831 26.5275 0.267578 21.3435 0.267578C14.3054 0.267578 8.34926 4.69119 6.36343 10.7848C2.71817 11.5923 0 14.7032 0 18.4266C0 22.3254 2.98149 25.5528 6.88594 26.1653C7.18217 31.3336 11.6544 35.4405 17.1429 35.4405C20.1271 35.4405 22.8069 34.2194 24.6857 32.2825C26.5646 34.2194 29.243 35.4405 32.2286 35.4405C37.9104 35.4405 42.5143 31.047 42.5143 25.6248C42.5143 24.6956 42.3703 23.8004 42.1179 22.9484C45.5726 21.5624 48 18.3023 48 14.5003Z" fill="#2293E4"/>
<path d="M5.48569 43.293C7.75795 43.293 9.59998 41.5351 9.59998 39.3667C9.59998 37.1983 7.75795 35.4404 5.48569 35.4404C3.21343 35.4404 1.3714 37.1983 1.3714 39.3667C1.3714 41.5351 3.21343 43.293 5.48569 43.293Z" fill="#2293E4"/>
</svg>
